<svg width="187" height="38" viewBox="0 0 187 38" fill="none" xmlns="http://www.w3.org/2000/svg">
<path opacity="0.5" d="M40.0652 0.256714L30.2601 34.9917C30.2102 35.1494 30.0108 35.1967 29.8945 35.0863L23.33 28.8583L28.2492 11.4514C28.2991 11.2937 28.1495 11.1518 27.9833 11.1991L9.63615 15.8662L3.10497 9.66969C2.98863 9.55932 3.03849 9.37011 3.20468 9.32281L39.7993 0.00444022C39.9655 -0.027094 40.115 0.11481 40.0652 0.256714Z" fill="#00B37E"/>
<path opacity="0.5" d="M23.3297 28.858L20.8037 37.8453C20.7538 38.0029 20.5544 38.0502 20.4381 37.9399L0.0634003 18.6251C-0.0529313 18.5148 -0.00307518 18.3255 0.163113 18.2782L9.63583 15.8659L23.3297 28.858Z" fill="#00B37E"/>
<path d="M28.2484 11.451L23.3292 28.8579L9.63535 15.8658L27.9825 11.1988C28.1487 11.1515 28.2983 11.2934 28.2484 11.451Z" fill="#00B37E"/>
<path d="M57.646 28.5V10.3182H69.6844V13.4876H61.4901V17.82H68.8854V20.9893H61.4901V28.5H57.646ZM72.199 28.5V14.8636H75.981V28.5H72.199ZM74.0989 13.1058C73.5366 13.1058 73.0543 12.9194 72.6518 12.5465C72.2552 12.1677 72.057 11.715 72.057 11.1882C72.057 10.6674 72.2552 10.2205 72.6518 9.84766C73.0543 9.46887 73.5366 9.27947 74.0989 9.27947C74.6611 9.27947 75.1405 9.46887 75.5371 9.84766C75.9396 10.2205 76.1408 10.6674 76.1408 11.1882C76.1408 11.715 75.9396 12.1677 75.5371 12.5465C75.1405 12.9194 74.6611 13.1058 74.0989 13.1058ZM82.7925 20.6165V28.5H79.0105V14.8636H82.6149V17.2695H82.7747C83.0766 16.4764 83.5826 15.8491 84.2929 15.3874C85.0031 14.9199 85.8642 14.6861 86.8763 14.6861C87.8233 14.6861 88.6489 14.8932 89.3532 15.3075C90.0575 15.7218 90.605 16.3137 90.9956 17.0831C91.3863 17.8466 91.5816 18.758 91.5816 19.8175V28.5H87.7996V20.4922C87.8055 19.6577 87.5925 19.0066 87.1604 18.5391C86.7283 18.0656 86.1335 17.8288 85.376 17.8288C84.867 17.8288 84.4172 17.9383 84.0265 18.1573C83.6418 18.3763 83.34 18.6959 83.121 19.1161C82.9079 19.5304 82.7984 20.0305 82.7925 20.6165ZM92.7934 13.4876V10.3182H107.726V13.4876H102.16V28.5H98.3598V13.4876H92.7934ZM108.698 28.5V14.8636H112.365V17.2429H112.507C112.755 16.3965 113.172 15.7573 113.758 15.3253C114.344 14.8873 115.019 14.6683 115.783 14.6683C115.972 14.6683 116.176 14.6802 116.395 14.7038C116.614 14.7275 116.806 14.7601 116.972 14.8015V18.1573C116.795 18.104 116.549 18.0567 116.235 18.0153C115.922 17.9738 115.635 17.9531 115.374 17.9531C114.818 17.9531 114.321 18.0745 113.883 18.3171C113.451 18.5539 113.107 18.8853 112.853 19.3114C112.604 19.7376 112.48 20.2288 112.48 20.7852V28.5H108.698ZM122.425 28.7575C121.555 28.7575 120.78 28.6065 120.099 28.3047C119.419 27.9969 118.88 27.5442 118.484 26.9464C118.093 26.3427 117.898 25.591 117.898 24.6914C117.898 23.9338 118.037 23.2976 118.315 22.7827C118.593 22.2678 118.972 21.8535 119.451 21.5398C119.931 21.2261 120.475 20.9893 121.085 20.8295C121.7 20.6697 122.346 20.5573 123.02 20.4922C123.813 20.4093 124.453 20.3324 124.938 20.2614C125.423 20.1844 125.775 20.072 125.994 19.924C126.213 19.776 126.323 19.5571 126.323 19.267V19.2138C126.323 18.6515 126.145 18.2165 125.79 17.9087C125.441 17.601 124.944 17.4471 124.299 17.4471C123.618 17.4471 123.076 17.598 122.674 17.8999C122.272 18.1958 122.005 18.5687 121.875 19.0185L118.377 18.7344C118.555 17.9058 118.904 17.1896 119.425 16.5859C119.946 15.9763 120.617 15.5088 121.44 15.1832C122.269 14.8518 123.227 14.6861 124.316 14.6861C125.074 14.6861 125.799 14.7749 126.491 14.9524C127.19 15.13 127.808 15.4052 128.347 15.7781C128.891 16.1509 129.321 16.6303 129.634 17.2163C129.948 17.7963 130.105 18.4917 130.105 19.3026V28.5H126.518V26.609H126.412C126.193 27.0352 125.9 27.411 125.533 27.7365C125.166 28.0561 124.725 28.3076 124.21 28.4911C123.695 28.6687 123.1 28.7575 122.425 28.7575ZM123.509 26.1474C124.065 26.1474 124.556 26.0379 124.982 25.8189C125.408 25.594 125.743 25.2921 125.985 24.9134C126.228 24.5346 126.349 24.1055 126.349 23.6261V22.179C126.231 22.2559 126.068 22.3269 125.861 22.392C125.66 22.4512 125.432 22.5075 125.178 22.5607C124.923 22.6081 124.669 22.6525 124.414 22.6939C124.16 22.7294 123.929 22.762 123.722 22.7915C123.278 22.8567 122.89 22.9602 122.559 23.1023C122.227 23.2443 121.97 23.4367 121.786 23.6793C121.603 23.9161 121.511 24.212 121.511 24.5671C121.511 25.082 121.697 25.4756 122.07 25.7479C122.449 26.0142 122.928 26.1474 123.509 26.1474ZM139.2 28.7663C137.803 28.7663 136.602 28.4704 135.596 27.8786C134.595 27.2808 133.826 26.4522 133.287 25.3928C132.755 24.3333 132.488 23.1141 132.488 21.7351C132.488 20.3383 132.758 19.1132 133.296 18.0597C133.841 17.0002 134.613 16.1746 135.613 15.5827C136.614 14.985 137.803 14.6861 139.182 14.6861C140.372 14.6861 141.414 14.9021 142.307 15.3342C143.201 15.7662 143.908 16.3729 144.429 17.1541C144.95 17.9354 145.237 18.8527 145.29 19.9062H141.721C141.621 19.2256 141.354 18.6781 140.922 18.2638C140.496 17.8436 139.937 17.6335 139.244 17.6335C138.659 17.6335 138.147 17.7933 137.709 18.1129C137.277 18.4266 136.939 18.8853 136.697 19.489C136.454 20.0927 136.333 20.8236 136.333 21.6818C136.333 22.5518 136.451 23.2917 136.688 23.9013C136.93 24.5109 137.271 24.9755 137.709 25.2951C138.147 25.6147 138.659 25.7745 139.244 25.7745C139.677 25.7745 140.064 25.6857 140.407 25.5082C140.757 25.3306 141.044 25.0732 141.269 24.7358C141.499 24.3925 141.65 23.9812 141.721 23.5018H145.29C145.231 24.5434 144.947 25.4608 144.438 26.2539C143.935 27.0411 143.24 27.6566 142.352 28.1005C141.464 28.5444 140.413 28.7663 139.2 28.7663ZM151.139 24.576L151.147 20.0394H151.698L156.066 14.8636H160.407L154.539 21.7173H153.642L151.139 24.576ZM147.712 28.5V10.3182H151.494V28.5H147.712ZM156.234 28.5L152.222 22.5607L154.743 19.8885L160.664 28.5H156.234ZM167.915 28.7663C166.513 28.7663 165.305 28.4822 164.293 27.9141C163.287 27.34 162.512 26.5291 161.967 25.4815C161.423 24.428 161.151 23.1822 161.151 21.744C161.151 20.3413 161.423 19.1102 161.967 18.0508C162.512 16.9914 163.278 16.1657 164.267 15.5739C165.261 14.982 166.427 14.6861 167.765 14.6861C168.664 14.6861 169.502 14.8311 170.277 15.1211C171.058 15.4052 171.739 15.8343 172.319 16.4084C172.905 16.9825 173.361 17.7045 173.686 18.5746C174.012 19.4387 174.174 20.4508 174.174 21.6108V22.6495H162.66V20.3058H170.614C170.614 19.7612 170.496 19.2789 170.259 18.8587C170.022 18.4384 169.694 18.11 169.274 17.8732C168.859 17.6306 168.377 17.5092 167.827 17.5092C167.253 17.5092 166.744 17.6424 166.3 17.9087C165.862 18.1692 165.518 18.5213 165.27 18.9652C165.021 19.4032 164.894 19.8915 164.888 20.43V22.6584C164.888 23.3331 165.012 23.9161 165.261 24.4073C165.515 24.8986 165.874 25.2773 166.335 25.5437C166.797 25.81 167.344 25.9432 167.978 25.9432C168.398 25.9432 168.783 25.884 169.132 25.7656C169.481 25.6473 169.78 25.4697 170.028 25.233C170.277 24.9962 170.466 24.7062 170.597 24.3629L174.094 24.5938C173.917 25.4342 173.553 26.1681 173.002 26.7955C172.458 27.4169 171.754 27.9022 170.89 28.2514C170.031 28.5947 169.04 28.7663 167.915 28.7663ZM176.642 28.5V14.8636H180.309V17.2429H180.451C180.7 16.3965 181.117 15.7573 181.703 15.3253C182.289 14.8873 182.963 14.6683 183.727 14.6683C183.916 14.6683 184.12 14.6802 184.339 14.7038C184.558 14.7275 184.751 14.7601 184.917 14.8015V18.1573C184.739 18.104 184.493 18.0567 184.18 18.0153C183.866 17.9738 183.579 17.9531 183.319 17.9531C182.762 17.9531 182.265 18.0745 181.827 18.3171C181.395 18.5539 181.052 18.8853 180.797 19.3114C180.549 19.7376 180.424 20.2288 180.424 20.7852V28.5H176.642Z" fill="#FAFAFA"/>
</svg>
